<?xml version="1.0" standalone="no"?>
<!DOCTYPE svg PUBLIC "-//W3C//DTD SVG 20010904//EN"
 "http://www.w3.org/TR/2001/REC-SVG-20010904/DTD/svg10.dtd">
<svg version="1.0" xmlns="http://www.w3.org/2000/svg"
 width="1024.000000pt" height="1024.000000pt" viewBox="0 0 1024.000000 1024.000000"
 preserveAspectRatio="xMidYMid meet">

<g transform="translate(0.000000,1024.000000) scale(0.100000,-0.100000)"
fill="#000000" stroke="none">
<path d="M0 5120 l0 -5120 5120 0 5120 0 0 5120 0 5120 -5120 0 -5120 0 0
-5120z m1731 1476 c13 -9 34 -16 46 -16 34 0 28 -13 -15 -32 -33 -15 -82 -77
-82 -102 0 -3 18 -6 41 -6 55 0 193 -36 253 -66 280 -140 433 -473 357 -775
-61 -244 -232 -427 -465 -498 -69 -21 -217 -40 -204 -26 4 4 35 9 68 12 194
14 409 150 513 324 75 128 112 310 87 434 -17 87 -42 165 -51 159 -5 -2 -15 9
-24 25 -10 20 -21 29 -33 26 -57 -11 -106 -31 -125 -53 -12 -13 -30 -33 -39
-43 -10 -10 -15 -19 -12 -19 15 0 -154 -144 -172 -146 -8 -1 -23 -11 -32 -21
-21 -24 -74 -61 -92 -65 -14 -3 -80 -63 -80 -73 0 -13 -82 -99 -99 -103 -19
-4 -181 -171 -181 -187 0 -8 -9 -15 -20 -15 -11 0 -20 -7 -20 -15 0 -8 -4 -15
-10 -15 -5 0 -9 -3 -8 -7 1 -5 -4 -19 -11 -32 -7 -12 -11 -32 -8 -42 6 -21 -8
-26 -16 -6 -4 9 -6 9 -6 0 -1 -17 31 -37 117 -72 60 -25 196 -61 228 -61 4 0
5 -2 2 -5 -12 -12 -157 19 -232 51 -187 78 -344 259 -394 454 -60 232 -13 458
130 628 103 123 275 211 443 228 47 5 65 11 65 21 0 28 -43 75 -84 92 l-41 18
45 20 c44 19 58 36 81 98 l11 30 23 -51 c12 -28 33 -59 46 -68z m-832 -93 c12
-10 24 -34 27 -53 5 -31 0 -41 -51 -98 -196 -223 -299 -513 -281 -790 19 -291
119 -522 315 -726 188 -195 410 -309 666 -339 314 -38 654 94 882 344 215 234
313 499 299 809 -12 268 -110 508 -288 705 -30 33 -57 67 -60 76 -10 26 18 78
46 85 45 11 79 -6 134 -64 154 -165 258 -356 313 -575 27 -108 34 -402 13
-522 -72 -407 -351 -767 -728 -939 -245 -112 -493 -140 -756 -86 -447 92 -845
471 -964 919 -46 170 -61 330 -45 471 31 269 145 537 299 706 86 93 133 114
179 77z m2931 -618 l0 -245 228 2 227 3 0 243 0 242 138 0 137 0 0 -615 -1
-615 -134 0 -135 0 0 265 0 265 -230 0 -230 0 0 -265 0 -265 -135 0 -135 0 0
615 0 615 135 0 135 0 0 -245z m4851 -44 c34 -34 38 -72 9 -101 -43 -43 -106
-31 -132 24 -13 30 7 75 42 93 37 19 48 16 81 -16z m-3575 -238 c53 -18 107
-63 130 -110 16 -33 20 -71 25 -278 3 -132 11 -257 16 -277 l11 -38 -68 0
c-68 0 -68 0 -75 30 -4 17 -9 30 -11 30 -2 0 -22 -13 -45 -29 -111 -81 -293
-53 -360 55 -11 19 -23 58 -26 89 -8 73 16 134 70 180 58 50 120 66 251 65
l108 0 -4 61 c-4 54 -9 66 -36 90 -38 34 -107 47 -162 30 -42 -12 -80 -52 -80
-82 0 -17 -8 -19 -70 -19 l-70 0 6 28 c23 96 96 165 191 182 68 12 151 9 199
-7z m686 -48 l3 -65 -60 0 c-67 0 -112 -21 -142 -67 -16 -25 -18 -51 -16 -275
l2 -248 -69 0 -70 0 2 353 3 352 63 3 62 3 0 -37 0 -38 33 31 c41 41 69 52
134 52 l51 1 4 -65z m523 51 c28 -9 64 -30 86 -52 l38 -37 47 41 c53 48 94 62
178 62 103 0 188 -59 215 -149 7 -25 11 -134 11 -305 l0 -266 -65 0 -66 0 2
254 c1 276 -2 291 -54 330 -42 31 -122 29 -169 -4 -64 -44 -68 -61 -68 -335
l0 -245 -65 0 -65 0 0 245 c0 261 -4 290 -49 330 -16 13 -41 20 -85 23 -75 5
-117 -13 -146 -61 -18 -30 -20 -52 -20 -284 l0 -253 -65 0 -65 0 0 355 0 355
60 0 60 0 0 -36 0 -36 36 27 c69 52 160 67 249 41z m1170 -15 c74 -34 136
-101 166 -180 31 -79 33 -243 4 -320 -27 -73 -100 -152 -167 -181 -62 -28
-177 -33 -247 -12 -64 20 -151 109 -181 187 -33 85 -33 243 0 329 28 73 94
146 161 180 72 36 181 34 264 -3z m798 -7 c23 -17 53 -50 67 -74 25 -45 25
-47 28 -327 l3 -283 -65 0 -66 0 0 258 c0 240 -1 259 -20 290 -28 46 -72 62
-137 52 -62 -10 -96 -31 -123 -75 -19 -30 -20 -49 -20 -279 l0 -246 -65 0 -65
0 0 355 0 355 59 0 59 0 7 -39 6 -39 25 25 c47 47 101 64 187 60 67 -3 84 -8
120 -33z m1023 6 c24 -12 56 -37 70 -56 45 -59 52 -105 54 -342 0 -121 5 -235
10 -253 6 -19 10 -35 10 -36 0 -2 -31 -3 -70 -3 l-70 0 0 30 c0 17 -2 30 -4
30 -2 0 -29 -16 -61 -35 -69 -41 -127 -51 -203 -36 -99 20 -159 86 -169 186
-7 69 14 129 63 178 50 49 108 67 247 74 l117 6 0 34 c0 51 -25 100 -62 123
-26 17 -45 20 -91 17 -68 -4 -108 -29 -122 -75 -9 -32 -10 -32 -73 -32 l-65 0
6 40 c10 74 79 139 177 167 64 18 180 10 236 -17z m-608 -337 l2 -353 -65 0
-65 0 0 349 0 350 28 4 c15 2 43 4 62 3 l35 -1 3 -352z m1059 -170 c41 -19 66
-67 57 -110 -11 -55 -48 -83 -109 -83 -51 0 -105 53 -105 102 1 87 75 130 157
91z"/>
<path d="M4940 5221 c-82 -17 -116 -57 -106 -126 5 -32 15 -51 37 -70 58 -48
185 -27 238 41 17 21 21 41 21 95 l0 69 -77 -1 c-43 -1 -94 -4 -113 -8z"/>
<path d="M7270 5488 c-36 -19 -51 -35 -75 -82 -27 -54 -30 -69 -30 -155 0 -88
3 -101 30 -151 41 -74 81 -100 157 -100 33 0 72 7 89 15 126 66 145 341 32
447 -56 51 -133 61 -203 26z"/>
<path d="M9085 5215 c-77 -27 -104 -88 -70 -160 19 -39 51 -55 111 -55 60 0
103 19 142 64 29 33 32 43 32 101 l0 65 -87 0 c-49 -1 -106 -7 -128 -15z"/>
</g>
</svg>
